/* XPM */
static char *collectible[] = {
/* columns rows colors chars-per-pixel */
"32 32 9 1 ",
"  c #A9A3B0",
". c #E17B50",
"X c #00EDFF",
"o c #76428A",
"O c #0C1317",
"+ c #3494CB",
"@ c #14605D",
"# c #DEF9FC",
"$ c #07BB79",
/* pixels */
"                                ",
"                                ",
"                                ",
"                                ",
"                                ",
"                                ",
"                                ",
"                                ",
"              ...               ",
"             X...X              ",
"             XX.XX              ",
"              oOo               ",
"              oOo               ",
"              oOo               ",
"             X+O+o              ",
"            XOOOOOX             ",
"           XO@@@@@OX            ",
"          X@@##@@@@@X           ",
"          X@$##@@@$@X           ",
"          X@@$$$$$@@+           ",
"          X@@@@@@@@@+           ",
"           X@@@@@@@+            ",
"            XXXX+++             ",
"                                ",
"                                ",
"                                ",
"                                ",
"                                ",
"                                ",
"                                ",
"                                ",
"                                "
};
