/* XPM */
static char *exit_opened[] = {
/* columns rows colors chars-per-pixel */
"32 32 4 1 ",
"  c #A9A3B0",
". c #6F5756",
"X c black",
"o c #211D1D",
/* pixels */
"                                ",
"                                ",
"                                ",
"                                ",
"   ..........................   ",
"   ..........................   ",
"   ..XXXXXXXXXXXXXXXXXXXXXX..   ",
"   ..XXXXXXXXXXXXXXXXXXXXXX..   ",
"   ..oXXXXXXXXXXXXXXXXXXXXo..   ",
"   ..oXXoooooXXXXXXXXXXXXXo..   ",
"   ..oXXoooooXXXXXXXXXXXXXo..   ",
"   ..oXXXXXXXXXXXXXXXXXXXXo..   ",
"   ..oXXXXoooooXXXXXXXXXXXo..   ",
"   ..oXXXXoooooXXXXXXXXXXXo..   ",
"   ..oXXXXXXXXXXXXXXXXXXXXo..   ",
"   ..oXXXXXXXXXXXXXXXXXXXXo..   ",
"   ..ooXXXXXXXXXXXXXXXXXXoo..   ",
"   ..ooXXXXXXXXXXXXXXXXXXoo..   ",
"   ..ooXXXXXXXXXXXXXXXXXXoo..   ",
"   ..ooXXXXXXXXXXXXXXXXXXoo..   ",
"   ..ooXXXXXXXXXXXXXXXXXXoo..   ",
"   ..ooXXXXXXXXXXXXXXXXXXoo..   ",
"   ..ooXXXXXXXXXXXXXXXXXXoo..   ",
"   ..ooXXXXXXXXXXXXXXXXXXoo..   ",
"   ..ooXXXXXXXXXXXXXXXXXXoo..   ",
"   ..ooXXXXXXXXXXXXXXXXXXoo..   ",
"   ..........................   ",
"   ..........................   ",
"                                ",
"                                ",
"                                ",
"                                "
};
