/* XPM */
static char *exit_closed[] = {
/* columns rows colors chars-per-pixel */
"32 32 6 1 ",
"  c #A9A3B0",
". c #6F5756",
"X c black",
"o c #5A5875",
"O c #42428F",
"+ c #8D768A",
/* pixels */
"                                ",
"                                ",
"                                ",
"                                ",
"   ..........................   ",
"   ..........................   ",
"   ..XXXXXXXXXXXXXXXXXXXXXX..   ",
"   ..XoooooooooXoOooooooooX..   ",
"   ..XoooooooooXoOooooooooX..   ",
"   ..++ooooooooX+Oooooooo++..   ",
"   ..++ooooooooX+Oooooooo++..   ",
"   ..XoooooooooX+oooooooooX..   ",
"   ..XoooooooooX+oooooooooX..   ",
"   ..XoooooooooX+oooooooooX..   ",
"   ..XoooooooooX+oooooooooX..   ",
"   ..XoooooooooX+oooooooooX..   ",
"   ..XoooooooooX+oooooooooX..   ",
"   ..XoooooooooX+oooooooooX..   ",
"   ..XoooooooooX+oooooooooX..   ",
"   ..XoooooooooX+oooooooooX..   ",
"   ..++ooooooooX+oooooooo++..   ",
"   ..++ooooooooX+Oooooooo++..   ",
"   ..XoooooooooX+OooooooooX..   ",
"   ..XoooooooooXoOooooooooX..   ",
"   ..XOOOOOOOOOXOOOOOOOOOOX..   ",
"   ..XXXXXXXXXXXXXXXXXXXXXX..   ",
"   ..........................   ",
"   ..........................   ",
"                                ",
"                                ",
"                                ",
"                                "
};
