/* XPM */
static char *floor_02[] = {
/* columns rows colors chars-per-pixel */
"32 32 10 1 ",
"  c #A9A3B0",
". c #A59FB0",
"X c #A49EB0",
"o c #A8A2B0",
"O c #8E88B2",
"+ c #8A84B2",
"@ c #A09AB1",
"# c #8F89B2",
"$ c #938DB1",
"% c #8B85B2",
/* pixels */
"                                ",
"                                ",
"                                ",
"                                ",
"                                ",
"                                ",
"                                ",
"                                ",
"                  .XXXXXo       ",
"                 .O+++++@o      ",
"                .O+++++++@o     ",
"                #+++++++++X     ",
"                #+++++++++X     ",
"                $%+++++++O.     ",
"                 $#######.      ",
"            .XXXXo              ",
"          .XO++++@o             ",
"         .O+++++++@o            ",
"         #+++++++++X            ",
"         #+++++++++X            ",
"         $%+++++++O.            ",
"          $#######.             ",
"                                ",
"                                ",
"                                ",
"                                ",
"                                ",
"                                ",
"                                ",
"                                ",
"                                ",
"                                "
};
