/* XPM */
static char *_4b39e47ca27406f8a3af9fc00f3556dTNnQzpRtfRaWJhtc[] = {
/* columns rows colors chars-per-pixel */
"32 32 17 1 ",
"  c #A9A3B0",
". c #00EDFF",
"X c #6F5756",
"o c #1E1B80",
"O c #A84111",
"+ c black",
"@ c #5A5875",
"# c #3B6983",
"$ c #8D768A",
"% c #222034",
"& c #FB9B72",
"* c #82A368",
"= c #FAFA82",
"- c #70162B",
"; c #EF3E6D",
": c #42428F",
"> c #472138",
/* pixels */
"       .                        ",
"      ...                       ",
"     ....                       ",
"     ....                       ",
"   XXX..oXXXXXXXXXXXXXXXXXXXX   ",
"   XXXooOXXXXXXXXXXXXXXXXXXXX   ",
"   XX+OOO++++++++++++++++++XX   ",
"   XX+OOO@@@@@######@@@@@@+XX   ",
"   XX+@OO@@@@########@@@@@+XX   ",
"   XX$$OO@@@#######@@@@@@$$XX   ",
"   XX$$OO@@#%%%%####@@@@@$$XX   ",
"   XX+@OO@@#%&&&%###@@@@@@+XX   ",
"   XX+@OO**%&&&&&%##*****=+XX   ",
"   XX+@OO**-+&&++-%#****=@+XX   ",
"   XX+@OO=*-&&&&&--#**==%@+XX   ",
"   XX+@OO@=--&&----#*=%%#@+XX   ",
"   XX+@OO#%--------#=%####+XX   ",
"   XX+&&O&#--------=######+XX   ",
"   XX+&OO&#--------########XX   ",
"   XX#&&&%##------=########XX   ",
"   XX#&&&%##------=########XX   ",
"   XX#%&&%##--=---=########XX   ",
"   XX+#OO%##;*==--=########XX   ",
"   XX+#OO###;*==-;=########XX   ",
"   XX+:OO:##-*==*;=#######+XX   ",
"   XX++OO+##-*==*-=##%####+XX   ",
"   XXXXOOX##=*==*-=###%XXXXXX   ",
"   XXXXOOX##=*==**=####XXXXXX   ",
"       OO  #=*==*=%####         ",
"       OO >>>====%####          ",
"       OO     ==   OOO          ",
"                                "
};
