/* XPM */
static char *obstacle[] = {
/* columns rows colors chars-per-pixel */
"32 32 7 1 ",
"  c #A9A3B0",
". c #131D42",
"X c #071121",
"o c #0D3358",
"O c #404E64",
"+ c #775260",
"@ c #1B2C59",
/* pixels */
"                                ",
"                                ",
"           ..........           ",
"         ..............         ",
"         ..XXXXXXXXXX..         ",
"        oXXXXXXXXXXXXXXo        ",
"        oXXXXXXXXXXXXXXo        ",
"       OoooXXXXXXXXXXoooO       ",
"       +OooooooooooooooOO       ",
"      O+O+OooooooooooO+OOO      ",
"      O+O+OO+O++O+O+OO+O++      ",
"      O+O++O+O++O+O+O++O++      ",
"      .+@++++O++++O++++@+.      ",
"     O..@++++@++++@++++@..O     ",
"     ++...oo+@++++@++o...O+     ",
"     +++..oooooooooooo..+++     ",
"     +++@+OOoooooooooO+@+++     ",
"     +++O++++@++++@++++@+++     ",
"     +++@++++@+O++O++++@+++     ",
"     +++@++++O+O++O++++@+++     ",
"     .++@++++O+O++@++++@++.     ",
"     ...@++++O++++@++++@...     ",
"      +...oo+@++++@++o...+      ",
"      ++..oooooooooooo..++      ",
"      O+O++oooooooooo++O+O      ",
"      OOO++++@++++@++++OOO      ",
"       .OO+++@++++@+++OO.       ",
"       ...OO+@++++@+OO...       ",
"        .....ooooo......        ",
"         ....ooooo.....         ",
"           ..ooooo...           ",
"                                "
};
