/* XPM */
static char *player[] = {
/* columns rows colors chars-per-pixel */
"32 32 13 1 ",
"  c None",
". c #00EDFF",
"X c #1E1B80",
"o c #A84111",
"O c #3B6983",
"+ c #222034",
"@ c #FB9B72",
"# c #82A368",
"$ c #FAFA82",
"% c #70162B",
"& c black",
"* c #EF3E6D",
"= c #472138",
/* pixels */
"       .                        ",
"      ...                       ",
"     ....                       ",
"     ....                       ",
"      ..X                       ",
"      XXo                       ",
"      ooo                       ",
"      ooo     OOOOOO            ",
"       oo    OOOOOOOO           ",
"       oo   OOOOOOO             ",
"       oo  O++++OOOO            ",
"       oo  O+@@@+OOO            ",
"       oo##+@@@@@+OO#####$      ",
"       oo##%&@@&&%+O####$       ",
"       oo$#%@@@@@%%O##$$+       ",
"       oo $%%@@%%%%O#$++O       ",
"       ooO+%%%%%%%%O$+OOOO      ",
"      @@o@O%%%%%%%%$OOOOOO      ",
"      @oo@O%%%%%%%%OOOOOOOO     ",
"     O@@@+OO%%%%%%$OOOOOOOO     ",
"     O@@@+OO%%%%%%$OOOOOOOO     ",
"     O+@@+OO%%$%%%$OOOOOOOO     ",
"      Ooo+OO*#$$%%$OOOOOOOO     ",
"      OooOOO*#$$%*$OOOOOOOO     ",
"       oo OO%#$$#*$OOOOOOO      ",
"       oo OO%#$$#%$OO+OOOO      ",
"       oo OO$#$$#%$OOO+         ",
"       oo OO$#$$##$OOOO         ",
"       oo  O$#$$#$+OOOO         ",
"       oo ===$$$$+OOOO          ",
"       oo     $$   ooo          ",
"                                "
};
